<svg width="19" height="19" viewBox="0 0 19 19" fill="none" xmlns="http://www.w3.org/2000/svg">
<path d="M9.16658 7.50016V5.00016H6.66658V3.3335H9.16658V0.833496H10.8333V3.3335H13.3333V5.00016H10.8333V7.50016H9.16658ZM5.83325 18.3335C5.37492 18.3335 4.98256 18.1703 4.65617 17.8439C4.32978 17.5175 4.16659 17.1252 4.16659 16.6668C4.16659 16.2085 4.32978 15.8161 4.65617 15.4897C4.98256 15.1634 5.37492 15.0002 5.83325 15.0002C6.29158 15.0002 6.68395 15.1634 7.01033 15.4897C7.33672 15.8161 7.49992 16.2085 7.49992 16.6668C7.49992 17.1252 7.33672 17.5175 7.01033 17.8439C6.68395 18.1703 6.29158 18.3335 5.83325 18.3335ZM14.1666 18.3335C13.7083 18.3335 13.3159 18.1703 12.9895 17.8439C12.6631 17.5175 12.4999 17.1252 12.4999 16.6668C12.4999 16.2085 12.6631 15.8161 12.9895 15.4897C13.3159 15.1634 13.7083 15.0002 14.1666 15.0002C14.6249 15.0002 15.0173 15.1634 15.3437 15.4897C15.6701 15.8161 15.8333 16.2085 15.8333 16.6668C15.8333 17.1252 15.6701 17.5175 15.3437 17.8439C15.0173 18.1703 14.6249 18.3335 14.1666 18.3335ZM0.833252 3.3335V1.66683H3.56242L7.10409 9.16683H12.9374L16.1874 3.3335H18.0833L14.4166 9.9585C14.2638 10.2363 14.0589 10.4516 13.802 10.6043C13.5451 10.7571 13.2638 10.8335 12.9583 10.8335H6.74992L5.83325 12.5002H15.8333V14.1668H5.83325C5.20825 14.1668 4.73256 13.896 4.40617 13.3543C4.07978 12.8127 4.06936 12.2641 4.37492 11.7085L5.49992 9.66683L2.49992 3.3335H0.833252Z" fill="#979797"/>
</svg>
