<svg width="66" height="66" viewBox="0 0 66 66" fill="none" xmlns="http://www.w3.org/2000/svg">
<g clip-path="url(#clip0_2071_5929)">
<path d="M33 5.5C27.561 5.5 22.2442 7.11285 17.7218 10.1346C13.1995 13.1563 9.67474 17.4512 7.59333 22.4762C5.51192 27.5012 4.96732 33.0305 6.02842 38.365C7.08951 43.6995 9.70863 48.5995 13.5546 52.4454C17.4005 56.2914 22.3006 58.9105 27.635 59.9716C32.9695 61.0327 38.4988 60.4881 43.5238 58.4067C48.5488 56.3253 52.8437 52.8005 55.8654 48.2782C58.8872 43.7558 60.5 38.439 60.5 33C60.5 29.3886 59.7887 25.8127 58.4067 22.4762C57.0247 19.1398 54.9991 16.1082 52.4454 13.5546C49.8918 11.001 46.8603 8.97532 43.5238 7.59331C40.1874 6.21131 36.6114 5.5 33 5.5ZM44.825 26.4275L32.2575 42.9275C32.0013 43.2603 31.6723 43.53 31.2957 43.7159C30.9192 43.9018 30.505 43.999 30.085 44C29.6673 44.0023 29.2546 43.9093 28.8781 43.7282C28.5017 43.5472 28.1715 43.2827 27.9125 42.955L21.2025 34.4025C20.9804 34.1172 20.8167 33.791 20.7207 33.4424C20.6247 33.0938 20.5982 32.7297 20.6429 32.371C20.6876 32.0122 20.8025 31.6657 20.9811 31.3513C21.1597 31.037 21.3985 30.7608 21.6838 30.5387C22.2599 30.0902 22.9907 29.8889 23.7153 29.9792C24.0741 30.0239 24.4206 30.1388 24.7349 30.3174C25.0493 30.4959 25.3254 30.7347 25.5475 31.02L30.03 36.74L40.425 22.99C40.6453 22.7011 40.9203 22.4584 41.2344 22.2758C41.5485 22.0932 41.8955 21.9742 42.2556 21.9257C42.6156 21.8772 42.9817 21.9 43.3329 21.993C43.6841 22.086 44.0136 22.2472 44.3025 22.4675C44.5914 22.6878 44.8341 22.9628 45.0167 23.2769C45.1993 23.591 45.3183 23.938 45.3668 24.298C45.4153 24.6581 45.3925 25.0242 45.2995 25.3754C45.2065 25.7266 45.0453 26.0561 44.825 26.345V26.4275Z" fill="#00B69B"/>
</g>
<defs>
<clipPath id="clip0_2071_5929">
<rect width="66" height="66" fill="white"/>
</clipPath>
</defs>
</svg>
