<svg xmlns="http://www.w3.org/2000/svg" width="190" height="190" viewBox="0 0 35 35" fill="none">
<path d="M17.5 0C12.8603 0.00518775 8.41212 1.8506 5.13136 5.13136C1.8506 8.41212 0.00518775 12.8603 0 17.5C0.00777378 22.1389 1.85401 26.5856 5.13422 29.8658C8.41442 33.146 12.8611 34.9922 17.5 35C22.1413 35 26.5925 33.1563 29.8744 29.8744C33.1563 26.5925 35 22.1413 35 17.5C35 12.8587 33.1563 8.40752 29.8744 5.12563C26.5925 1.84374 22.1413 0 17.5 0ZM28.1442 27.5982C27.1614 25.6158 25.6441 23.9475 23.7636 22.7816C21.883 21.6156 19.7141 20.9984 17.5014 20.9996C15.2888 21.0008 13.1205 21.6202 11.2412 22.7882C9.36186 23.9561 7.84634 25.626 6.8656 27.6094C4.24888 24.8955 2.79082 21.2699 2.8 17.5C2.8 13.6013 4.34875 9.86232 7.10553 7.10553C9.86232 4.34875 13.6013 2.8 17.5 2.8C21.3987 2.8 25.1377 4.34875 27.8945 7.10553C30.6513 9.86232 32.2 13.6013 32.2 17.5C32.2088 21.2647 30.7545 24.8855 28.1442 27.5982ZM17.5 7C16.254 7 15.0359 7.36949 13.9999 8.06174C12.9639 8.75399 12.1564 9.73792 11.6796 10.8891C11.2027 12.0403 11.078 13.307 11.3211 14.5291C11.5641 15.7511 12.1642 16.8737 13.0452 17.7548C13.9263 18.6358 15.0489 19.2359 16.2709 19.4789C17.493 19.722 18.7597 19.5973 19.9109 19.1204C21.0621 18.6436 22.046 17.8361 22.7383 16.8001C23.4305 15.7641 23.8 14.546 23.8 13.3C23.8 12.4727 23.637 11.6534 23.3204 10.8891C23.0038 10.1247 22.5398 9.43024 21.9548 8.84523C21.3698 8.26022 20.6753 7.79616 19.9109 7.47956C19.1466 7.16295 18.3273 7 17.5 7Z" fill="#4F4F4F"/>
</svg>