<svg width="24" height="24" viewBox="0 0 24 24" fill="none" xmlns="http://www.w3.org/2000/svg">
<path d="M4.57959 20.3297V3.67037C4.57959 2.95084 5.37412 2.51725 5.97881 2.90397L19.0007 11.2337C19.5608 11.5922 19.5608 12.4079 19.0007 12.7665L5.97881 21.0962C5.37412 21.4829 4.57959 21.0493 4.57959 20.3297Z" fill="#313131"/>
<path d="M4.93105 20.3296C4.93105 20.0015 4.93105 19.671 4.93105 19.3429C4.93105 18.5062 4.93105 17.6695 4.93105 16.8327C4.93105 15.696 4.93105 14.5593 4.93105 13.4249C4.93105 12.2062 4.93105 10.9874 4.93105 9.76633C4.93105 8.67883 4.93105 7.59133 4.93105 6.50149C4.93105 5.75852 4.93105 5.01789 4.93105 4.27492C4.93105 4.10149 4.93105 3.92571 4.93105 3.75227C4.93105 3.72649 4.93105 3.69836 4.93105 3.67258C4.93105 3.66086 4.93105 3.65618 4.93105 3.63977C4.93105 3.61868 4.9334 3.59992 4.93574 3.57883C4.93105 3.65383 4.9334 3.59055 4.93809 3.56946C4.9498 3.52727 4.96152 3.48508 4.97324 3.44524C4.9498 3.51555 4.96621 3.45696 4.97793 3.43821C4.99434 3.41008 5.0084 3.38196 5.02715 3.35383C5.03652 3.33743 5.04824 3.32336 5.05762 3.3093C5.01543 3.36789 5.04355 3.32805 5.05527 3.31633C5.08809 3.28352 5.11855 3.25305 5.15371 3.22258C5.09746 3.2718 5.13965 3.23196 5.1584 3.22024C5.17715 3.20852 5.1959 3.1968 5.21699 3.18508C5.2334 3.17571 5.2498 3.16868 5.26621 3.1593C5.33418 3.1218 5.21465 3.17336 5.28262 3.15227C5.32715 3.14055 5.36934 3.12649 5.41387 3.11711C5.49355 3.09602 5.36699 3.11008 5.41621 3.11711C5.4373 3.11946 5.46309 3.11477 5.48418 3.11477C5.50293 3.11477 5.52168 3.11477 5.54043 3.11711C5.54512 3.11711 5.63184 3.13352 5.57793 3.11946C5.52168 3.10539 5.61309 3.12883 5.61543 3.12883C5.64355 3.13586 5.67168 3.14524 5.69746 3.15461C5.7584 3.17336 5.70918 3.1593 5.69512 3.15227C5.72324 3.16633 5.74902 3.18039 5.7748 3.19446C5.78418 3.19914 5.79355 3.20618 5.80059 3.21086C5.80293 3.21321 5.80527 3.21321 5.80762 3.21555C5.84043 3.23664 5.87559 3.25774 5.9084 3.27883C6.08418 3.39133 6.25762 3.50149 6.4334 3.61399C7.11543 4.04992 7.7998 4.48821 8.48184 4.92414C9.44277 5.54055 10.4061 6.15461 11.367 6.77102C12.3865 7.42258 13.4061 8.07649 14.4279 8.72805C15.3068 9.29055 16.1834 9.85071 17.0623 10.4132C17.585 10.7484 18.1076 11.0835 18.6326 11.4163C18.6842 11.4491 18.7334 11.482 18.785 11.5124C18.7967 11.5195 18.8084 11.5265 18.8201 11.5335C18.8225 11.5335 18.8248 11.5359 18.8248 11.5359C18.8412 11.5476 18.86 11.5593 18.8764 11.571C18.8225 11.5288 18.874 11.571 18.8857 11.5827C18.9092 11.6085 18.9326 11.632 18.9561 11.6554C18.9701 11.6695 18.9842 11.707 18.9537 11.6531C18.9631 11.6695 18.9748 11.6835 18.9842 11.6999C18.9982 11.7234 19.01 11.7491 19.024 11.7749C19.0334 11.7937 19.0404 11.8335 19.0217 11.7679C19.0357 11.8124 19.0498 11.8546 19.0615 11.9015C19.0662 11.9202 19.0686 11.9366 19.0709 11.9554C19.0568 11.8663 19.0686 11.9507 19.0686 11.9718C19.0686 11.9976 19.0568 12.1359 19.0709 12.0421C19.0639 12.0866 19.0545 12.1335 19.0404 12.1757C19.0357 12.1945 19.0287 12.2109 19.0217 12.2273C19.0451 12.1546 19.0287 12.2132 19.017 12.232C19.0053 12.2531 18.9959 12.2741 18.9818 12.2929C18.9748 12.3023 18.9209 12.3773 18.9701 12.314C18.9396 12.3515 18.9045 12.3843 18.8693 12.4195C18.86 12.4288 18.8178 12.4616 18.8693 12.4218C18.8506 12.4359 18.8389 12.4429 18.8178 12.457C18.8154 12.457 18.8154 12.4593 18.8131 12.4593C18.8037 12.4663 18.792 12.4734 18.7826 12.4781C18.3842 12.7335 17.9857 12.9866 17.5873 13.2421C16.7834 13.7554 15.9795 14.271 15.1756 14.7843C14.1654 15.4288 13.1576 16.0757 12.1475 16.7202C11.1561 17.3554 10.1623 17.9906 9.1709 18.6257C8.39512 19.1226 7.61934 19.6195 6.84355 20.114C6.49668 20.3366 6.15215 20.5616 5.80293 20.7796C5.76543 20.803 5.72793 20.8241 5.68809 20.8452C5.74668 20.8148 5.70449 20.8382 5.69043 20.8429C5.66699 20.8499 5.64355 20.857 5.62012 20.864C5.59668 20.871 5.57324 20.8734 5.5498 20.8804C5.61309 20.8616 5.58496 20.878 5.55918 20.878C5.5123 20.8804 5.46777 20.8804 5.4209 20.878C5.35527 20.8757 5.41855 20.878 5.43262 20.8804C5.40684 20.8757 5.37871 20.871 5.35293 20.864C5.32949 20.8593 5.22871 20.8218 5.26621 20.8382C5.30371 20.8546 5.20527 20.8054 5.18652 20.7937C5.16777 20.782 5.14902 20.7655 5.13027 20.7562C5.08574 20.7351 5.18418 20.8101 5.12559 20.7515C5.09277 20.7187 5.05996 20.6882 5.02949 20.653C5.07871 20.707 5.02012 20.6366 5.00371 20.6132C4.98965 20.5898 4.97793 20.564 4.96387 20.5406C4.95449 20.5218 4.9498 20.4843 4.96621 20.5476C4.95449 20.5007 4.93809 20.4562 4.92637 20.4093C4.92168 20.3905 4.92402 20.346 4.92637 20.414C4.9334 20.3905 4.93105 20.3601 4.93105 20.3296C4.92871 20.1468 4.77168 19.9687 4.57949 19.9781C4.39199 19.9874 4.22559 20.1327 4.22793 20.3296C4.23496 20.7937 4.48809 21.2413 4.9123 21.4499C5.31309 21.6468 5.77715 21.6351 6.15918 21.3984C6.2459 21.3445 6.33262 21.2882 6.41699 21.232C6.98652 20.8687 7.55605 20.503 8.12559 20.1398C9.04199 19.5538 9.9584 18.9679 10.8748 18.382C11.9131 17.7163 12.9537 17.0531 13.992 16.3874C14.9389 15.7827 15.8857 15.1757 16.8326 14.571C17.4701 14.1632 18.11 13.7554 18.7475 13.3452C18.8811 13.2609 19.0146 13.1741 19.1482 13.0898C19.2748 13.0077 19.3943 12.914 19.4881 12.7945C19.7951 12.4077 19.8514 11.8945 19.6428 11.4468C19.5139 11.1726 19.2842 10.9991 19.0404 10.8421C18.8529 10.7226 18.6631 10.6007 18.4756 10.4812C17.7607 10.0241 17.0459 9.56711 16.3334 9.11008C15.349 8.47961 14.3623 7.84914 13.3779 7.21868C12.342 6.55774 11.3084 5.89446 10.2725 5.23352C9.40762 4.68039 8.54277 4.12727 7.67793 3.57414C7.20449 3.2718 6.7334 2.96946 6.25996 2.66711C5.93887 2.46086 5.58262 2.35539 5.19824 2.44211C4.60527 2.57571 4.22793 3.1218 4.22559 3.71242C4.22559 4.16946 4.22559 4.62414 4.22559 5.08118C4.22559 6.01868 4.22559 6.95617 4.22559 7.89367C4.22559 9.0843 4.22559 10.2726 4.22559 11.4632C4.22559 12.6843 4.22559 13.9077 4.22559 15.1288C4.22559 16.1624 4.22559 17.196 4.22559 18.232C4.22559 18.8507 4.22559 19.4671 4.22559 20.0859C4.22559 20.1679 4.22559 20.2499 4.22559 20.3343C4.22559 20.5171 4.3873 20.6952 4.57715 20.6859C4.76934 20.6718 4.93105 20.5265 4.93105 20.3296Z" fill="#313131"/>
</svg>
